<svg width="111" height="120" viewBox="0 0 111 120" fill="none" xmlns="http://www.w3.org/2000/svg">
<path d="M55.5 120C86.1518 120 111 93.1371 111 60C111 26.8629 86.1518 0 55.5 0C24.8482 0 0 26.8629 0 60C0 93.1371 24.8482 120 55.5 120Z" fill="#AA7373"/>
<path d="M14 23.8536L30.8946 20L36.3832 79.6293L45.9582 35.6565L62.4864 35.2901L72.8547 82.8097L80.8445 20.9175L96.4577 22.8745C91.9035 47.705 86.6786 75.1652 80.7831 105.255H64.1945L54.1313 52.2305L42.8481 101.035L29.5529 102.319C24.8765 75.9803 19.6922 49.8253 14 23.8536Z" fill="#F8CE84"/>
</svg>